# xmcd
#
# Track frame offsets: 
#        150
#        19721
#        40576
#        60792
#        79018
#        96151
#        118493
#        124882
#        142534
#        164309
#        180786
#        200153
#
# Disc length: 2918 seconds
#
# Revision: 2
# Processed by: cddbd v1.5.2PL0 Copyright (c) Steve Scherf et al.
# Submitted via: ExactAudioCopy v1.0b3
#
DISCID=900b640c
DTITLE=張敬軒 - My Way[第一版][引進版]
DYEAR=2002
DGENRE=R&B
TTITLE0=期待[國][Special Version]
TTITLE1=My Way[國][Special Version]
TTITLE2=斷點[國]
TTITLE3=自愛[國]
TTITLE4=Paris[國]
TTITLE5=明了[國]
TTITLE6=Interlude[音]
TTITLE7=釋放[國]
TTITLE8=聲音[國]
TTITLE9=晚妝[粵]
TTITLE10=我的寶貝[粵]
TTITLE11=My Way[粵]
EXTD=
EXTT0=
EXTT1=
EXTT2=
EXTT3=
EXTT4=
EXTT5=
EXTT6=
EXTT7=
EXTT8=
EXTT9=
EXTT10=
EXTT11=
PLAYORDER=
